<svg width="50" height="50" viewBox="0 0 50 50" fill="none" xmlns="http://www.w3.org/2000/svg">
<path d="M16.9939 15.1459C17.0002 15.1709 17.0189 15.1959 17.0314 15.2272C17.0439 15.2459 17.0439 15.2647 17.0564 15.2834C17.0564 15.2896 17.0627 15.2896 17.0689 15.2896C17.0752 15.2959 17.0752 15.3021 17.0814 15.3084L23.5173 22.4691C23.5236 22.4753 23.5236 22.4753 23.5298 22.4753C23.561 22.5066 23.5923 22.5253 23.6298 22.5503C23.6423 22.5566 23.6548 22.5691 23.6673 22.5753C23.7173 22.5941 23.7735 22.6066 23.8297 22.6066C23.836 22.6066 23.8422 22.6066 23.8547 22.6066C23.8735 22.6066 23.886 22.6003 23.9047 22.5941C23.936 22.5878 23.9672 22.5816 23.9984 22.5691C24.0234 22.5566 24.0422 22.5441 24.0609 22.5316C24.0797 22.5191 24.0984 22.5128 24.1109 22.5003C24.1172 22.4941 24.1172 22.4878 24.1234 22.4816C24.1422 22.4629 24.1609 22.4379 24.1734 22.4129C24.1859 22.3879 24.2046 22.3691 24.2109 22.3441C24.2171 22.3254 24.2234 22.3004 24.2296 22.2754C24.2359 22.2442 24.2421 22.2129 24.2421 22.1817C24.2421 22.1754 24.2484 22.1692 24.2421 22.1629L23.736 12.5528C23.736 12.5466 23.7298 12.5403 23.7298 12.5403C23.7298 12.5341 23.7298 12.5278 23.7298 12.5216C23.7298 12.4966 23.7173 12.4778 23.711 12.4591C23.7048 12.4341 23.6985 12.4029 23.686 12.3779C23.6735 12.3591 23.661 12.3466 23.6485 12.3279C23.6298 12.3029 23.6048 12.2717 23.5798 12.2529C23.5673 12.2404 23.5548 12.2342 23.5361 12.2279C23.5048 12.2092 23.4736 12.1904 23.4361 12.1779C23.4173 12.1717 23.3923 12.1717 23.3736 12.1717C23.3486 12.1654 23.3236 12.1592 23.2924 12.1592C23.2861 12.1592 23.2799 12.1654 23.2736 12.1654C23.2674 12.1654 23.2611 12.1654 23.2611 12.1654C21.0367 12.4591 18.9185 13.3339 17.1377 14.7023C17.1314 14.7085 17.1314 14.7085 17.1252 14.7148C17.1189 14.721 17.1127 14.721 17.1127 14.721C17.0939 14.7335 17.0877 14.7585 17.0752 14.7773C17.0564 14.796 17.0377 14.821 17.0252 14.846C17.0127 14.871 17.0064 14.896 17.0002 14.9272C16.9939 14.9522 16.9814 14.9772 16.9814 15.0022C16.9814 15.0335 16.9814 15.0585 16.9877 15.0834C16.9877 15.1022 16.9877 15.1272 16.9939 15.1459ZM22.9237 13.0652L23.3486 21.032L18.0187 15.0959C19.4746 14.065 21.1554 13.3651 22.9237 13.0652Z" fill="black"/>
<path d="M12.1561 23.3758C12.1561 23.407 12.1623 23.4382 12.1685 23.4632C12.1748 23.4882 12.1873 23.507 12.1998 23.532C12.2123 23.557 12.2248 23.5819 12.2435 23.6007C12.2623 23.6194 12.281 23.6382 12.2998 23.6507C12.3185 23.6694 12.3373 23.6882 12.3623 23.7007C12.3872 23.7132 12.4122 23.7194 12.4435 23.7257C12.4622 23.7319 12.481 23.7444 12.506 23.7444C12.5122 23.7444 12.5247 23.7444 12.531 23.7444H12.5372L22.166 24.263C22.1723 24.263 22.1785 24.263 22.191 24.263C22.2473 24.263 22.3035 24.2505 22.3535 24.2318C22.366 24.2255 22.3785 24.213 22.391 24.2068C22.4285 24.188 22.4597 24.1631 22.491 24.1381C22.4972 24.1318 22.4972 24.1318 22.5035 24.1256C22.516 24.1131 22.5222 24.0943 22.5285 24.0818C22.5472 24.0568 22.5597 24.0318 22.5722 24.0068C22.5847 23.9818 22.5847 23.9569 22.5909 23.9256C22.5972 23.9069 22.6034 23.8944 22.6034 23.8756C22.6034 23.8694 22.6034 23.8631 22.6034 23.8569C22.6034 23.8256 22.5972 23.7944 22.5909 23.7694C22.5847 23.7444 22.5847 23.7194 22.5722 23.7007C22.5597 23.6757 22.5472 23.6569 22.5347 23.6319C22.516 23.6069 22.5035 23.5819 22.4847 23.5632C22.4785 23.557 22.4785 23.5507 22.4722 23.5445L15.2928 17.0961C15.2865 17.0898 15.2803 17.0898 15.2803 17.0898C15.274 17.0836 15.274 17.0773 15.2678 17.0773C15.249 17.0648 15.224 17.0586 15.2053 17.0461C15.1803 17.0336 15.1615 17.0211 15.1366 17.0148C15.1053 17.0086 15.0803 17.0023 15.0491 17.0023C15.0241 17.0023 15.0053 16.9961 14.9803 16.9961C14.9491 16.9961 14.9241 17.0086 14.8991 17.0148C14.8741 17.0211 14.8491 17.0273 14.8304 17.0398C14.8054 17.0523 14.7866 17.0711 14.7617 17.0898C14.7429 17.1023 14.7242 17.1148 14.7054 17.1273C14.6992 17.1336 14.6992 17.1398 14.6992 17.1398C14.6929 17.1461 14.6929 17.1461 14.6867 17.1523C13.3183 18.9394 12.4435 21.0576 12.1498 23.282C12.1498 23.2883 12.1498 23.2945 12.1498 23.3008C12.1498 23.307 12.1436 23.307 12.1436 23.3133C12.1436 23.3383 12.1498 23.357 12.1561 23.3758ZM15.0803 18.0333L21.0288 23.382L13.0496 22.9509C13.3495 21.1825 14.0493 19.5017 15.0803 18.0333Z" fill="black"/>
<path d="M22.4986 26.4866C22.5173 26.4678 22.5361 26.4428 22.5486 26.4178C22.5611 26.3929 22.5798 26.3741 22.5861 26.3491C22.5923 26.3304 22.5986 26.3054 22.6048 26.2804C22.6111 26.2491 22.6173 26.2179 22.6173 26.1867C22.6173 26.1804 22.6236 26.1742 22.6173 26.1679C22.6173 26.1492 22.6048 26.1367 22.6048 26.1179C22.5986 26.0867 22.5923 26.0554 22.5798 26.0304C22.5673 26.0055 22.5548 25.9867 22.5423 25.968C22.5298 25.9492 22.5236 25.9242 22.5111 25.9117C22.5048 25.9055 22.4923 25.8992 22.4861 25.893C22.4736 25.8805 22.4611 25.8742 22.4486 25.8617C22.4174 25.8367 22.3861 25.8118 22.3486 25.7993C22.3361 25.793 22.3299 25.793 22.3174 25.793C22.2799 25.7805 22.2361 25.7743 22.1987 25.7743C22.1924 25.7743 22.1862 25.768 22.1799 25.7743L12.5448 26.2804C12.5386 26.2804 12.5323 26.2866 12.5261 26.2866C12.5198 26.2866 12.5136 26.2866 12.5073 26.2866C12.4823 26.2866 12.4698 26.2991 12.4448 26.3054C12.4199 26.3116 12.3886 26.3179 12.3636 26.3304C12.3386 26.3429 12.3199 26.3616 12.3011 26.3741C12.2824 26.3929 12.2574 26.4054 12.2386 26.4303C12.2199 26.4491 12.2137 26.4741 12.2012 26.4991C12.1887 26.5241 12.1762 26.5428 12.1637 26.5741C12.1574 26.5991 12.1574 26.6303 12.1512 26.6553C12.1512 26.6803 12.1387 26.699 12.1387 26.724C12.1387 26.7303 12.1449 26.7365 12.1449 26.7428C12.1449 26.749 12.1449 26.7553 12.1449 26.7615C12.4448 28.9797 13.3259 31.0979 14.6943 32.8912C14.7005 32.8975 14.7005 32.8975 14.7068 32.9037C14.713 32.91 14.713 32.9162 14.7193 32.9225C14.7443 32.9537 14.7755 32.9662 14.8068 32.985C14.8255 32.9975 14.838 33.01 14.8567 33.0162C14.913 33.0412 14.9692 33.0537 15.0317 33.0537C15.1129 33.0537 15.1942 33.0224 15.2629 32.9725C15.2691 32.9662 15.2754 32.9725 15.2816 32.9662C15.2879 32.96 15.2879 32.96 15.2941 32.9537C15.3004 32.9475 15.3066 32.9475 15.3066 32.9475L22.4736 26.5053C22.4923 26.4991 22.4923 26.4928 22.4986 26.4866ZM15.1067 32.0102C14.0694 30.5418 13.3696 28.8547 13.0572 27.0927L21.0489 26.6678L15.1067 32.0102Z" fill="black"/>
<path d="M24.2234 27.5994C24.2046 27.5744 24.1922 27.5494 24.1734 27.5244C24.1547 27.5056 24.1297 27.4931 24.1109 27.4806C24.0859 27.4681 24.0672 27.4494 24.0422 27.4369C24.0172 27.4244 23.9922 27.4244 23.961 27.4182C23.936 27.4119 23.911 27.3994 23.886 27.3994C23.886 27.3994 23.886 27.3994 23.8797 27.3994H23.8735C23.8422 27.3994 23.8235 27.4119 23.7923 27.4182C23.7673 27.4244 23.7485 27.4244 23.7235 27.4369C23.6798 27.4557 23.6485 27.4744 23.611 27.5056C23.6048 27.5119 23.5923 27.5181 23.5861 27.5306C23.5736 27.5431 23.5548 27.5494 23.5423 27.5681L17.1189 34.7226C17.1127 34.7288 17.1127 34.7351 17.1127 34.7351C17.1064 34.7413 17.1002 34.7413 17.1002 34.7476C17.0877 34.7663 17.0814 34.7851 17.0689 34.8038C17.0564 34.8288 17.0377 34.8538 17.0314 34.8788C17.0252 34.9038 17.0252 34.9288 17.0189 34.9538C17.0189 34.9788 17.0127 35.0038 17.0127 35.035C17.0127 35.06 17.0252 35.085 17.0314 35.11C17.0377 35.135 17.0439 35.16 17.0564 35.185C17.0689 35.21 17.0877 35.2287 17.1064 35.2475C17.1189 35.2662 17.1314 35.2849 17.1439 35.3037C17.1502 35.3099 17.1564 35.3099 17.1627 35.3162C17.1689 35.3224 17.1689 35.3224 17.1752 35.3287C18.9622 36.6846 21.0804 37.5531 23.3049 37.8406C23.3111 37.8406 23.3236 37.8406 23.3299 37.8406H23.3361C23.3424 37.8406 23.3486 37.8406 23.3611 37.8406C23.4111 37.8406 23.4673 37.8281 23.5111 37.8093C23.5298 37.8031 23.5423 37.7906 23.5611 37.7781C23.5861 37.7593 23.6173 37.7468 23.6423 37.7281C23.661 37.7156 23.6673 37.6968 23.6798 37.6781C23.6985 37.6531 23.7173 37.6344 23.7298 37.6094C23.7423 37.5906 23.7423 37.5656 23.7485 37.5469C23.7548 37.5219 23.7673 37.5031 23.7735 37.4781C23.7735 37.4719 23.7735 37.4656 23.7735 37.4594C23.7735 37.4532 23.7798 37.4531 23.7798 37.4469L24.2984 27.8243V27.8181C24.2984 27.7618 24.2859 27.7056 24.2671 27.6556C24.2484 27.6369 24.2359 27.6244 24.2234 27.5994ZM22.9675 36.947C21.1992 36.6534 19.5183 35.966 18.0499 34.935L23.3924 28.9865L22.9675 36.947Z" fill="black"/>
<path d="M33.0195 34.8345C33.0133 34.8095 32.9945 34.7845 32.982 34.7532C32.9695 34.7345 32.9695 34.7157 32.957 34.697C32.9508 34.6908 32.9508 34.6908 32.9445 34.6845C32.9383 34.6783 32.9383 34.672 32.9383 34.672L26.5212 27.53C26.5149 27.5238 26.5087 27.5238 26.5024 27.5175C26.4837 27.4988 26.4587 27.4801 26.4337 27.4676C26.4149 27.4551 26.3899 27.4363 26.3712 27.4301C26.3462 27.4176 26.3212 27.4176 26.2962 27.4113C26.2712 27.4051 26.2462 27.3988 26.215 27.3988C26.2087 27.3988 26.2025 27.3926 26.19 27.3926C26.1712 27.3926 26.1525 27.4051 26.1338 27.4051C26.1088 27.4113 26.0775 27.4176 26.0525 27.4238C26.0275 27.4363 26.0025 27.4488 25.9775 27.4676C25.965 27.4801 25.9463 27.4801 25.9338 27.4926C25.9276 27.4988 25.9276 27.505 25.9213 27.5113C25.9026 27.53 25.8838 27.555 25.8713 27.58C25.8588 27.605 25.8401 27.6238 25.8338 27.6488C25.8276 27.6675 25.8213 27.6925 25.8151 27.7175C25.8088 27.7487 25.8026 27.78 25.8026 27.8112C25.8026 27.8175 25.7963 27.8237 25.8026 27.83L26.3087 37.4401C26.3087 37.4463 26.315 37.4526 26.315 37.4588C26.315 37.4651 26.315 37.4713 26.315 37.4776C26.3212 37.5026 26.3275 37.5213 26.3399 37.5463C26.3462 37.5713 26.3524 37.59 26.3587 37.615C26.3712 37.64 26.3899 37.665 26.4087 37.6838C26.4212 37.7025 26.4337 37.715 26.4462 37.7337C26.4712 37.7587 26.5024 37.7712 26.5337 37.79C26.5461 37.7962 26.5586 37.8087 26.5774 37.815C26.6274 37.8337 26.6774 37.8462 26.7274 37.8462C26.7336 37.8462 26.7398 37.8462 26.7523 37.8462H26.7586C26.7711 37.8462 26.7773 37.8462 26.7898 37.8462C29.0018 37.5463 31.1138 36.659 32.8946 35.2969C32.9008 35.2906 32.9008 35.2906 32.9071 35.2844C32.9133 35.2781 32.9196 35.2781 32.9196 35.2781C32.9383 35.2656 32.9445 35.2406 32.957 35.2219C32.9758 35.2031 32.9945 35.1781 33.007 35.1531C33.0195 35.1281 33.0258 35.1032 33.032 35.0719C33.0383 35.0469 33.0508 35.0219 33.0508 34.9969C33.0508 34.9657 33.0508 34.9407 33.0445 34.9157C33.032 34.8845 33.032 34.8595 33.0195 34.8345ZM27.1085 36.9339L26.6899 28.9672L32.0073 34.8845C30.5389 35.9217 28.8643 36.6215 27.1085 36.9339Z" fill="black"/>
<path d="M47.2411 22.3569L42.3923 22.6131C41.9862 19.6076 40.8052 16.7708 38.9557 14.3589L42.5673 11.116C43.1171 10.6223 43.4296 9.91002 43.4296 9.16021C43.4296 8.45414 43.1609 7.79805 42.661 7.30442C42.1424 6.7858 41.4676 6.51712 40.7177 6.53587C39.9929 6.56086 39.3306 6.86703 38.8495 7.4044L35.6065 11.016C33.1884 9.16646 30.3516 7.99175 27.3398 7.59185L27.596 2.74306V2.61185C27.596 1.17471 26.4213 0 24.9779 0C24.2594 0 23.5595 0.299925 23.0659 0.824794C22.566 1.35591 22.3161 2.04324 22.3598 2.76806L22.616 7.59185C19.598 7.99175 16.755 9.16646 14.3431 11.016L11.1251 7.43564C10.1566 6.35466 8.33835 6.31092 7.3136 7.33567C6.80748 7.84179 6.5263 8.54786 6.54504 9.26643C6.56379 9.99125 6.87621 10.6598 7.41358 11.141L11.0002 14.3589C9.14439 16.7771 7.96344 19.6263 7.56979 22.6443L2.75224 22.3882H2.63352C1.18388 22.3882 0.00292969 23.5691 0.00292969 25.0187C0.00292969 25.7436 0.290357 26.4184 0.821475 26.9183C1.30885 27.3807 1.96494 27.6431 2.63352 27.6431C2.67726 27.6431 2.72725 27.6431 2.77099 27.6368L7.56979 27.3807C7.97594 30.3986 9.15689 33.2417 11.0189 35.6536L7.43857 38.8715C6.88246 39.3714 6.56379 40.0775 6.56379 40.8148C6.56379 41.5209 6.83872 42.177 7.33859 42.6768C7.83222 43.1705 8.50705 43.4454 9.20063 43.4454C9.22562 43.4454 9.25062 43.4454 9.27561 43.4454C10.0004 43.4266 10.669 43.1142 11.1501 42.5769L14.3931 39.0028C16.8112 40.8523 19.6543 42.0207 22.666 42.4144L22.4098 47.2507V47.3694C22.4098 48.819 23.5908 50 25.0404 50C25.7652 50 26.4401 49.7126 26.9399 49.1815C27.4336 48.6628 27.696 47.9505 27.6585 47.2319L27.4023 42.4019C30.4203 41.9895 33.2571 40.8023 35.6503 38.9528L38.887 42.5581C39.3868 43.1142 40.0929 43.4329 40.8302 43.4329C41.5363 43.4329 42.1986 43.158 42.6923 42.6581C43.2046 42.1457 43.4733 41.4646 43.4546 40.7336C43.4358 40.015 43.1234 39.3277 42.5923 38.8465L38.9807 35.5974C40.824 33.1792 41.9924 30.3362 42.3923 27.3369L47.2536 27.5993H47.3723C48.822 27.5993 49.9967 26.4184 49.9967 24.9688C49.9967 24.2439 49.7093 23.5691 49.1781 23.0692C48.6595 22.5756 47.9784 22.3257 47.2411 22.3569ZM47.3786 26.7683H47.2849L42.0612 26.4871C42.0299 26.4871 42.0049 26.4934 41.9737 26.4996C41.9549 26.5059 41.9362 26.4996 41.9174 26.5059C41.755 26.5496 41.655 26.6808 41.63 26.8433C41.63 26.8495 41.6238 26.8495 41.6238 26.8558C41.6238 26.862 41.6238 26.862 41.6238 26.8683C41.6238 26.8745 41.6238 26.8745 41.6238 26.8745C41.2801 29.9738 40.0679 32.9105 38.1184 35.3662C38.1184 35.3662 38.1184 35.3724 38.1122 35.3724C38.1122 35.3787 38.1059 35.3787 38.1059 35.3849C38.0997 35.3912 38.0997 35.4037 38.0934 35.4099C38.0684 35.4474 38.0434 35.4849 38.0309 35.5286C38.0309 35.5349 38.0309 35.5474 38.0247 35.5536C38.0122 35.5974 38.0122 35.6411 38.0122 35.6848C38.0122 35.6973 38.0184 35.7036 38.0184 35.7161C38.0247 35.7598 38.0372 35.7973 38.0559 35.841C38.0622 35.8535 38.0747 35.866 38.0809 35.8785C38.0997 35.9035 38.1122 35.9348 38.1434 35.9598L42.0362 39.4651C42.4048 39.7963 42.611 40.2524 42.6235 40.7523C42.636 41.2522 42.4486 41.7146 42.1049 42.0645C41.4051 42.7581 40.1679 42.7393 39.5056 41.9958L36.0314 38.128C36.0314 38.128 36.0314 38.128 36.0314 38.1217C36.0314 38.1217 36.0252 38.1217 36.0252 38.1155L36.0127 38.103C36.0002 38.0905 35.9877 38.0842 35.9752 38.0717C35.9502 38.0467 35.9189 38.0217 35.8877 38.0092C35.8627 37.9967 35.844 37.9968 35.819 37.9905C35.794 37.9843 35.769 37.9718 35.7377 37.9718C35.7065 37.9718 35.6753 37.978 35.644 37.978C35.6253 37.978 35.6003 37.978 35.5815 37.9843C35.544 37.9967 35.5128 38.0155 35.4816 38.0342C35.4691 38.0405 35.4566 38.0467 35.4441 38.053C35.4378 38.0592 35.4316 38.0592 35.4253 38.0655C32.9884 40.0275 30.0517 41.2584 26.915 41.6146C26.89 41.6146 26.8712 41.6271 26.8525 41.6333C26.8212 41.6396 26.7962 41.6458 26.7712 41.6583C26.7462 41.6708 26.7275 41.6896 26.7088 41.7083C26.69 41.7271 26.665 41.7396 26.6463 41.7583C26.6275 41.7771 26.615 41.8083 26.6025 41.8333C26.59 41.8583 26.5775 41.877 26.5713 41.902C26.5588 41.9333 26.5588 41.9645 26.5588 41.9895C26.5588 42.0083 26.5463 42.027 26.5525 42.052L26.8275 47.2569C26.8525 47.7568 26.6775 48.2254 26.3401 48.5879C26.0027 48.9503 25.5403 49.144 25.0467 49.144C24.0594 49.144 23.2534 48.3379 23.2534 47.3507V47.2569L23.5283 42.0582C23.5283 42.0332 23.522 42.0145 23.5158 41.9895C23.5096 41.9583 23.5096 41.9333 23.5033 41.902C23.4971 41.877 23.4783 41.8583 23.4658 41.8333C23.4533 41.8083 23.4408 41.7833 23.4221 41.7646C23.4033 41.7458 23.3783 41.7271 23.3596 41.7146C23.3408 41.6958 23.3221 41.6833 23.2971 41.6708C23.2721 41.6583 23.2409 41.6521 23.2096 41.6458C23.1909 41.6396 23.1721 41.6271 23.1471 41.6271C20.0167 41.2959 17.0612 40.0775 14.5993 38.103C14.5805 38.0842 14.5555 38.078 14.5305 38.0655C14.5056 38.053 14.4868 38.0405 14.4618 38.028C14.4368 38.0217 14.4056 38.0217 14.3806 38.0155C14.3556 38.0155 14.3306 38.0092 14.3056 38.0092C14.2806 38.0092 14.2556 38.0217 14.2306 38.028C14.2056 38.0342 14.1806 38.0405 14.1556 38.053C14.1306 38.0655 14.1119 38.0842 14.0869 38.103C14.0682 38.1155 14.0494 38.128 14.0307 38.1467L10.5503 42.0207C10.2254 42.3894 9.76924 42.5956 9.27561 42.6143C8.77574 42.6268 8.3071 42.4394 7.95719 42.0895C7.61353 41.7521 7.42607 41.2959 7.42607 40.8148C7.42607 40.3149 7.64477 39.8275 8.01967 39.4901L11.8812 36.0222C11.9 36.0035 11.9125 35.9785 11.9249 35.9598C11.9374 35.941 11.9562 35.9223 11.9687 35.8973C11.9812 35.8723 11.9874 35.841 11.9937 35.816C11.9999 35.791 12.0062 35.7723 12.0124 35.7473C12.0124 35.7161 12.0062 35.6911 12.0062 35.6661C12.0062 35.6411 12.0062 35.6161 11.9937 35.5911C11.9874 35.5661 11.9687 35.5411 11.9562 35.5224C11.9437 35.4974 11.9374 35.4786 11.9249 35.4536C9.94419 32.9918 8.707 30.0362 8.36334 26.8995C8.35709 26.8683 8.34459 26.8433 8.33835 26.8183C8.3321 26.7995 8.32585 26.7746 8.3196 26.7558C8.30086 26.7121 8.26961 26.6808 8.23212 26.6433C8.22587 26.6433 8.22587 26.6371 8.22587 26.6308C8.18838 26.5996 8.14464 26.5746 8.09466 26.5559C8.09466 26.5559 8.08841 26.5559 8.08841 26.5496C8.05717 26.5371 8.01968 26.5371 7.98218 26.5309C7.96344 26.5309 7.94469 26.5184 7.92595 26.5184L2.74599 26.7933C2.25237 26.8245 1.77749 26.6433 1.41508 26.3059C1.05892 25.9623 0.858966 25.5061 0.858966 25.0125C0.858966 24.0252 1.66501 23.2192 2.65227 23.2192H2.74599L7.9197 23.4941C7.9197 23.4941 7.9197 23.4941 7.92595 23.4941C7.9322 23.4941 7.93845 23.4941 7.94469 23.4941C7.96344 23.4941 7.98218 23.4879 7.99468 23.4816C8.11965 23.4691 8.22587 23.4004 8.28836 23.2942C8.29461 23.2817 8.30085 23.2754 8.3071 23.2629C8.3196 23.2442 8.3196 23.2192 8.32585 23.2004C8.3321 23.1755 8.34459 23.1505 8.35084 23.1192C8.68826 19.9825 9.9192 17.027 11.9 14.5589C11.9125 14.5401 11.9187 14.5151 11.9312 14.4964C11.9437 14.4714 11.9624 14.4464 11.9687 14.4214C11.9749 14.3964 11.9749 14.3714 11.9812 14.3402C11.9812 14.3152 11.9874 14.2902 11.9874 14.2589C11.9874 14.2339 11.9749 14.2089 11.9687 14.184C11.9624 14.159 11.9562 14.134 11.9437 14.109C11.9312 14.084 11.9125 14.0652 11.8937 14.0402C11.8812 14.0215 11.8687 14.0027 11.85 13.984L7.97594 10.5099C7.60728 10.185 7.40108 9.72882 7.38233 9.23519C7.36984 8.73532 7.55729 8.26668 7.9072 7.91677C8.60078 7.21695 9.84422 7.24194 10.5066 7.9855L13.9744 11.847C14.0119 11.8908 14.0557 11.9158 14.0994 11.9408C14.1057 11.9408 14.1119 11.947 14.1182 11.947C14.1681 11.9658 14.2181 11.9783 14.2744 11.9845C14.2806 11.9845 14.2806 11.9845 14.2869 11.9845C14.2931 11.9845 14.2994 11.9783 14.3056 11.9783C14.3806 11.972 14.4618 11.947 14.5243 11.9033C14.5305 11.897 14.5368 11.9033 14.543 11.897C16.9987 9.92252 19.9604 8.69783 23.0909 8.35416C23.1159 8.35416 23.1346 8.34166 23.1534 8.33542C23.1784 8.32917 23.2096 8.32292 23.2346 8.31042C23.2596 8.29793 23.2784 8.27918 23.2971 8.26043C23.3158 8.24169 23.3408 8.22919 23.3533 8.21045C23.3721 8.18545 23.3846 8.16046 23.3971 8.13547C23.4096 8.11672 23.4221 8.09173 23.4283 8.07298C23.4408 8.04799 23.4408 8.01675 23.4408 7.9855C23.4408 7.96051 23.4533 7.94176 23.4533 7.92302L23.1784 2.71182C23.1471 2.2182 23.3221 1.74956 23.6595 1.38715C24.0032 1.02474 24.4656 0.824794 24.9654 0.824794C25.9527 0.824794 26.7525 1.62459 26.7525 2.59935V2.71182L26.4776 7.91677C26.4776 7.94176 26.4838 7.96051 26.4901 7.97926C26.4963 8.0105 26.4963 8.04174 26.5026 8.06673C26.5088 8.09173 26.5275 8.11047 26.5338 8.12922C26.5463 8.15421 26.5588 8.17921 26.5775 8.2042C26.5963 8.22295 26.615 8.23544 26.6338 8.25419C26.6525 8.27293 26.6713 8.29168 26.6963 8.30417C26.7212 8.31667 26.7525 8.32292 26.7775 8.32917C26.8025 8.33542 26.8212 8.34791 26.84 8.34791C29.9579 8.68533 32.9072 9.90377 35.3628 11.872C35.3691 11.8783 35.3753 11.8845 35.3816 11.8845C35.3878 11.8845 35.3878 11.8845 35.3941 11.8908C35.4628 11.9408 35.544 11.972 35.6253 11.972C35.6315 11.972 35.6378 11.9783 35.644 11.9783C35.6503 11.9783 35.6503 11.9783 35.6565 11.9783C35.7065 11.9783 35.7565 11.9658 35.8065 11.947C35.8252 11.9408 35.844 11.9283 35.8627 11.9158C35.894 11.897 35.9314 11.8783 35.9564 11.847L35.9689 11.8345C35.9689 11.8345 35.9752 11.8345 35.9752 11.8283C35.9752 11.8283 35.9752 11.8283 35.9752 11.822L39.4493 7.94801C39.7742 7.57935 40.2304 7.37316 40.7177 7.35441C41.2176 7.34191 41.6863 7.52937 42.0487 7.87928C42.3861 8.2167 42.5673 8.66658 42.5673 9.14147C42.5673 9.65384 42.3548 10.1412 41.9799 10.4724L38.0872 13.9653C38.0622 13.9903 38.0434 14.0152 38.0247 14.0465C38.0184 14.059 38.0059 14.0715 37.9934 14.084C37.9747 14.1215 37.9622 14.1652 37.9559 14.2027C37.9559 14.2152 37.9497 14.2214 37.9497 14.2339C37.9434 14.2777 37.9497 14.3214 37.9622 14.3652C37.9622 14.3714 37.9622 14.3839 37.9684 14.3902C37.9809 14.4339 38.0059 14.4714 38.0309 14.5089C38.0372 14.5151 38.0372 14.5276 38.0434 14.5339C38.0497 14.5401 38.0497 14.5401 38.0497 14.5464C38.0497 14.5464 38.0497 14.5526 38.0559 14.5526C40.0117 16.9958 41.2364 19.9325 41.5863 23.038C41.5863 23.038 41.5863 23.038 41.5863 23.0442C41.5863 23.0505 41.5863 23.0567 41.5863 23.063C41.5863 23.0755 41.5988 23.0942 41.5988 23.1067C41.605 23.1442 41.6113 23.1755 41.63 23.2129C41.6363 23.2192 41.6425 23.2254 41.6488 23.2379C41.6925 23.3067 41.755 23.3629 41.83 23.4004C41.8362 23.4066 41.8425 23.4129 41.855 23.4129C41.8737 23.4191 41.8987 23.4191 41.9174 23.4254C41.9424 23.4316 41.9737 23.4441 42.0049 23.4441C42.0112 23.4441 42.0174 23.4441 42.0237 23.4441C42.0237 23.4441 42.0237 23.4441 42.0299 23.4441L47.2599 23.1692C47.7597 23.138 48.2284 23.3192 48.5908 23.6566C48.9532 23.994 49.1469 24.4564 49.1469 24.95C49.1719 25.9623 48.3721 26.7683 47.3786 26.7683Z" fill="black"/>
<path d="M37.832 26.624C37.832 26.5928 37.8257 26.5615 37.8195 26.5365C37.8132 26.5115 37.8007 26.4928 37.7882 26.4678C37.7757 26.4428 37.7632 26.4178 37.7445 26.3991C37.7257 26.3803 37.707 26.3616 37.6883 26.3491C37.6695 26.3303 37.6508 26.3116 37.6258 26.2991C37.6008 26.2866 37.5695 26.2803 37.5445 26.2741C37.5258 26.2678 37.507 26.2553 37.4821 26.2553C37.4758 26.2553 37.4696 26.2553 37.4696 26.2553C37.4633 26.2553 37.4571 26.2491 37.4508 26.2491L27.8532 25.7305H27.847C27.7907 25.7305 27.7345 25.743 27.6845 25.7617C27.6595 25.7742 27.6408 25.793 27.6158 25.8055C27.597 25.8179 27.572 25.8304 27.5533 25.8492C27.5345 25.8679 27.5158 25.8992 27.5033 25.9242C27.4908 25.9429 27.4783 25.9617 27.4658 25.9804C27.4533 26.0116 27.4533 26.0429 27.4471 26.0741C27.4408 26.0929 27.4346 26.1116 27.4346 26.1366C27.4346 26.1366 27.4346 26.1366 27.4346 26.1429V26.1491C27.4346 26.1616 27.4408 26.1741 27.4471 26.1929C27.4533 26.2366 27.4596 26.2803 27.4783 26.3178C27.4846 26.3366 27.4971 26.3553 27.5096 26.3678C27.5283 26.3991 27.5533 26.4303 27.5845 26.4553C27.5908 26.4615 27.597 26.474 27.6033 26.4803L34.7327 32.8849C34.739 32.8912 34.7452 32.8912 34.7515 32.8974C34.7577 32.9037 34.7577 32.9037 34.764 32.9099C34.7702 32.9162 34.7765 32.9099 34.7827 32.9162C34.8515 32.9662 34.9327 32.9912 35.0139 32.9912C35.0764 32.9912 35.1326 32.9787 35.1889 32.9537C35.2076 32.9474 35.2201 32.9287 35.2389 32.9224C35.2701 32.9037 35.3014 32.8849 35.3263 32.8599C35.3326 32.8537 35.3326 32.8474 35.3388 32.8412C35.3451 32.8349 35.3451 32.8349 35.3513 32.8287C36.701 31.0479 37.5695 28.9359 37.8632 26.724C37.8632 26.7177 37.8632 26.7115 37.8632 26.7052C37.8632 26.699 37.8695 26.699 37.8695 26.6927C37.8382 26.6615 37.832 26.6427 37.832 26.624ZM34.9264 31.9414L29.0029 26.624L36.9322 27.0551C36.6323 28.811 35.9449 30.4793 34.9264 31.9414Z" fill="black"/>
<path d="M27.5346 23.5126C27.5158 23.5314 27.4971 23.5564 27.4846 23.5814C27.4721 23.6064 27.4534 23.6251 27.4471 23.6501C27.4409 23.6751 27.4346 23.6938 27.4284 23.7188C27.4221 23.7501 27.4159 23.7813 27.4159 23.8063C27.4159 23.8126 27.4096 23.8188 27.4159 23.825C27.4159 23.8438 27.4284 23.8625 27.4284 23.875C27.4346 23.9 27.4409 23.9313 27.4471 23.9563C27.4596 23.9875 27.4783 24.0125 27.4908 24.0375C27.5033 24.05 27.5033 24.0687 27.5158 24.0812C27.5221 24.0875 27.5221 24.0875 27.5283 24.0875C27.5596 24.1187 27.5908 24.1437 27.6283 24.1625C27.6408 24.1687 27.6471 24.1812 27.6596 24.1812C27.7095 24.2 27.7658 24.2125 27.822 24.2125C27.8283 24.2125 27.8345 24.2125 27.847 24.2125L37.4321 23.7063H37.4384C37.4446 23.7063 37.4571 23.7063 37.4633 23.7063C37.4883 23.7063 37.5008 23.6938 37.5258 23.6876C37.5508 23.6813 37.5821 23.6751 37.6071 23.6626C37.6321 23.6501 37.6508 23.6313 37.6695 23.6126C37.6883 23.5939 37.7133 23.5814 37.7258 23.5626C37.7445 23.5439 37.757 23.5189 37.7695 23.4939C37.782 23.4689 37.7945 23.4501 37.8008 23.4251C37.807 23.3939 37.8133 23.3689 37.8133 23.3377C37.8133 23.3189 37.8258 23.3002 37.8195 23.2814C37.8195 23.2752 37.8133 23.2752 37.8133 23.2689C37.8133 23.2627 37.8133 23.2564 37.8133 23.2502C37.5196 21.0382 36.6448 18.9325 35.2764 17.1517C35.2701 17.1455 35.2701 17.1455 35.2639 17.1392C35.2577 17.133 35.2577 17.1267 35.2577 17.1267C35.2389 17.108 35.2202 17.1017 35.2014 17.083C35.1827 17.0642 35.1577 17.0455 35.1389 17.033C35.1139 17.0205 35.0889 17.0143 35.064 17.008C35.039 17.0018 35.014 16.9893 34.989 16.9893C34.964 16.9893 34.939 16.9893 34.914 16.9955C34.8827 16.9955 34.8578 17.0018 34.8265 17.008C34.8015 17.0143 34.7828 17.033 34.7578 17.0392C34.739 17.0517 34.714 17.058 34.6953 17.0705C34.689 17.0767 34.689 17.0767 34.6828 17.083C34.6765 17.0892 34.6703 17.0892 34.6703 17.0892L27.5533 23.4939C27.5471 23.5001 27.5408 23.5064 27.5346 23.5126ZM34.8952 18.0203C35.9325 19.4761 36.6261 21.1507 36.926 22.9065L28.9842 23.3252L34.8952 18.0203Z" fill="black"/>
<path d="M25.8646 22.4755C25.8709 22.4818 25.8709 22.488 25.8771 22.4943C25.8959 22.5068 25.9146 22.513 25.9271 22.5255C25.9458 22.538 25.9646 22.5505 25.9896 22.563C26.0208 22.5755 26.0521 22.5818 26.0833 22.588C26.1021 22.588 26.1146 22.6005 26.127 22.6005C26.1333 22.6005 26.1395 22.6005 26.152 22.6005C26.2083 22.6005 26.2645 22.588 26.3145 22.5693C26.327 22.563 26.3395 22.5505 26.352 22.5443C26.3895 22.5255 26.4207 22.5005 26.452 22.4693C26.4582 22.4631 26.4582 22.4631 26.4645 22.4631L32.8879 15.3023C32.8941 15.2961 32.8941 15.2898 32.8941 15.2836C32.9004 15.2773 32.9004 15.2773 32.9066 15.2773C32.9191 15.2586 32.9253 15.2399 32.9378 15.2211C32.9503 15.1961 32.9691 15.1711 32.9753 15.1461C32.9816 15.1211 32.9816 15.0961 32.9878 15.0712C32.9878 15.0462 32.9941 15.0212 32.9941 14.9899C32.9941 14.9649 32.9816 14.9399 32.9753 14.9149C32.9691 14.8899 32.9628 14.865 32.9503 14.84C32.9378 14.815 32.9191 14.7962 32.9004 14.7712C32.8879 14.7525 32.8754 14.7337 32.8629 14.7212C32.8566 14.715 32.8504 14.715 32.8504 14.715C32.8441 14.7087 32.8441 14.7087 32.8379 14.7025C31.0696 13.3466 28.9576 12.4718 26.7207 12.1781C26.7144 12.1781 26.7082 12.1781 26.7019 12.1781C26.6957 12.1781 26.6894 12.1719 26.6832 12.1719C26.6582 12.1719 26.6332 12.1781 26.6082 12.1844C26.5832 12.1844 26.5644 12.1844 26.5394 12.1969C26.5082 12.2094 26.4832 12.2219 26.452 12.2406C26.4332 12.2531 26.4145 12.2594 26.3957 12.2718C26.3707 12.2906 26.3582 12.3156 26.3395 12.3343C26.3207 12.3531 26.3083 12.3718 26.2958 12.3968C26.2833 12.4218 26.277 12.4468 26.2708 12.4718C26.2645 12.4968 26.252 12.5155 26.2458 12.5405C26.2458 12.5468 26.2458 12.553 26.2458 12.5593C26.2458 12.5655 26.2395 12.5655 26.2395 12.5718L25.7334 22.1756C25.7334 22.1819 25.7334 22.1881 25.7334 22.1944C25.7334 22.2256 25.7396 22.2506 25.7459 22.2818C25.7521 22.3068 25.7521 22.3318 25.7646 22.3568C25.7771 22.3818 25.7896 22.4006 25.8021 22.4193C25.8334 22.4256 25.8459 22.4506 25.8646 22.4755ZM27.0581 13.0654C28.8264 13.3653 30.5072 14.0589 31.9568 15.0899L26.6332 21.0197L27.0581 13.0654Z" fill="black"/>
</svg>
