<svg width="27" height="18" viewBox="0 0 27 18" fill="none" xmlns="http://www.w3.org/2000/svg">
<path d="M1.55172 0C0.697438 0 0 0.697438 0 1.55172V16.4483C0 17.3026 0.697438 18 1.55172 18H25.1379C25.9922 18 26.6897 17.3026 26.6897 16.4483V1.55172C26.6897 0.697438 25.9922 0 25.1379 0H1.55172ZM1.55172 0.62069H25.1379C25.6591 0.62069 26.069 1.03056 26.069 1.55172V16.4483C26.069 16.9694 25.6591 17.3793 25.1379 17.3793H1.55172C1.03056 17.3793 0.62069 16.9694 0.62069 16.4483V1.55172C0.62069 1.03056 1.03056 0.62069 1.55172 0.62069ZM3.66595 3.41379C3.62519 3.41761 3.58559 3.42942 3.5494 3.44855C3.51321 3.46768 3.48114 3.49374 3.45502 3.52526C3.42891 3.55678 3.40925 3.59314 3.39719 3.63225C3.38512 3.67137 3.38088 3.71248 3.3847 3.75323C3.38852 3.79399 3.40033 3.83359 3.41946 3.86978C3.43858 3.90597 3.46465 3.93804 3.49617 3.96416C3.52769 3.99027 3.56404 4.00993 3.60316 4.02199C3.64227 4.03406 3.68338 4.0383 3.72414 4.03448H9.93103C9.97216 4.03506 10.013 4.02747 10.0512 4.01213C10.0893 3.9968 10.124 3.97403 10.1533 3.94515C10.1826 3.91628 10.2059 3.88187 10.2218 3.84393C10.2376 3.80598 10.2458 3.76527 10.2458 3.72414C10.2458 3.68301 10.2376 3.64229 10.2218 3.60435C10.2059 3.56641 10.1826 3.532 10.1533 3.50312C10.124 3.47425 10.0893 3.45148 10.0512 3.43614C10.013 3.42081 9.97216 3.41321 9.93103 3.41379H3.72414C3.70478 3.41197 3.6853 3.41197 3.66595 3.41379ZM18 3.41379C16.3857 3.41379 15.0711 4.72839 15.0711 6.34267C15.0711 7.60998 15.8818 8.69054 17.0108 9.09698C14.5706 9.55976 12.7241 11.7027 12.7241 14.2759C12.7241 14.3582 12.7568 14.4371 12.815 14.4953C12.8732 14.5535 12.9522 14.5862 13.0345 14.5862H20.57C20.6112 14.5868 20.652 14.5792 20.6902 14.5639C20.7283 14.5485 20.7631 14.5258 20.7923 14.4969C20.8216 14.468 20.8449 14.4336 20.8608 14.3956C20.8766 14.3577 20.8848 14.317 20.8848 14.2759C20.8848 14.2347 20.8766 14.194 20.8608 14.1561C20.8449 14.1181 20.8216 14.0837 20.7923 14.0548C20.7631 14.026 20.7283 14.0032 20.6902 13.9879C20.652 13.9725 20.6112 13.9649 20.57 13.9655H13.3739C13.5357 11.5385 15.5314 9.62069 18 9.62069C20.5747 9.62069 22.6552 11.7012 22.6552 14.2759C22.6546 14.317 22.6622 14.3578 22.6775 14.396C22.6929 14.4341 22.7156 14.4689 22.7445 14.4982C22.7734 14.5274 22.8078 14.5507 22.8457 14.5666C22.8837 14.5825 22.9244 14.5906 22.9655 14.5906C23.0066 14.5906 23.0474 14.5825 23.0853 14.5666C23.1232 14.5507 23.1577 14.5274 23.1865 14.4982C23.2154 14.4689 23.2382 14.4341 23.2535 14.396C23.2688 14.3578 23.2764 14.317 23.2759 14.2759C23.2759 11.7027 21.4294 9.55976 18.9892 9.09698C20.1182 8.69054 20.9289 7.60998 20.9289 6.34267C20.9289 4.72839 19.6143 3.41379 18 3.41379ZM18 4.03448C19.2788 4.03448 20.3082 5.06383 20.3082 6.34267C20.3082 7.62151 19.2788 8.65086 18 8.65086C16.7212 8.65086 15.6918 7.62151 15.6918 6.34267C15.6918 5.06383 16.7212 4.03448 18 4.03448ZM3.66595 6.05172C3.58364 6.05944 3.50777 6.09954 3.45502 6.16319C3.40228 6.22685 3.37698 6.30886 3.3847 6.39116C3.39241 6.47347 3.43251 6.54934 3.49617 6.60209C3.55983 6.65483 3.64183 6.68013 3.72414 6.67241H9.93103C9.97216 6.673 10.013 6.6654 10.0512 6.65006C10.0893 6.63473 10.124 6.61196 10.1533 6.58308C10.1826 6.55421 10.2059 6.5198 10.2218 6.48186C10.2376 6.44392 10.2458 6.4032 10.2458 6.36207C10.2458 6.32094 10.2376 6.28022 10.2218 6.24228C10.2059 6.20434 10.1826 6.16993 10.1533 6.14105C10.124 6.11218 10.0893 6.08941 10.0512 6.07408C10.013 6.05874 9.97216 6.05114 9.93103 6.05172H3.72414C3.70478 6.0499 3.6853 6.0499 3.66595 6.05172ZM3.66595 8.68966C3.58364 8.69737 3.50777 8.73747 3.45502 8.80113C3.40228 8.86478 3.37698 8.94679 3.3847 9.02909C3.39241 9.1114 3.43251 9.18728 3.49617 9.24002C3.55983 9.29276 3.64183 9.31806 3.72414 9.31034H9.93103C9.97216 9.31093 10.013 9.30333 10.0512 9.28799C10.0893 9.27266 10.124 9.24989 10.1533 9.22101C10.1826 9.19214 10.2059 9.15773 10.2218 9.11979C10.2376 9.08185 10.2458 9.04113 10.2458 9C10.2458 8.95887 10.2376 8.91815 10.2218 8.88021C10.2059 8.84227 10.1826 8.80786 10.1533 8.77899C10.124 8.75011 10.0893 8.72734 10.0512 8.71201C10.013 8.69667 9.97216 8.68907 9.93103 8.68966H3.72414C3.70478 8.68783 3.6853 8.68783 3.66595 8.68966ZM3.66595 11.3276C3.58364 11.3353 3.50777 11.3754 3.45502 11.4391C3.40228 11.5027 3.37698 11.5847 3.3847 11.667C3.39241 11.7493 3.43251 11.8252 3.49617 11.878C3.55983 11.9307 3.64183 11.956 3.72414 11.9483H9.93103C9.97216 11.9489 10.013 11.9413 10.0512 11.9259C10.0893 11.9106 10.124 11.8878 10.1533 11.8589C10.1826 11.8301 10.2059 11.7957 10.2218 11.7577C10.2376 11.7198 10.2458 11.6791 10.2458 11.6379C10.2458 11.5968 10.2376 11.5561 10.2218 11.5181C10.2059 11.4802 10.1826 11.4458 10.1533 11.4169C10.124 11.388 10.0893 11.3653 10.0512 11.3499C10.013 11.3346 9.97216 11.327 9.93103 11.3276H3.72414C3.70478 11.3258 3.6853 11.3258 3.66595 11.3276ZM3.66595 13.9655C3.58364 13.9732 3.50777 14.0133 3.45502 14.077C3.40228 14.1406 3.37698 14.2226 3.3847 14.305C3.39241 14.3873 3.43251 14.4631 3.49617 14.5159C3.55983 14.5686 3.64183 14.5939 3.72414 14.5862H9.93103C9.97216 14.5868 10.013 14.5792 10.0512 14.5639C10.0893 14.5485 10.124 14.5258 10.1533 14.4969C10.1826 14.468 10.2059 14.4336 10.2218 14.3956C10.2376 14.3577 10.2458 14.317 10.2458 14.2759C10.2458 14.2347 10.2376 14.194 10.2218 14.1561C10.2059 14.1181 10.1826 14.0837 10.1533 14.0548C10.124 14.026 10.0893 14.0032 10.0512 13.9879C10.013 13.9725 9.97216 13.9649 9.93103 13.9655H3.72414C3.70478 13.9637 3.6853 13.9637 3.66595 13.9655Z" fill="black"/>
</svg>
