<svg width="42" height="50" viewBox="0 0 42 50" fill="none" xmlns="http://www.w3.org/2000/svg">
<path d="M40.664 24.9403C40.8502 22.311 41.0189 18.7328 41.0611 16.3793C41.0648 16.1636 41.0712 14.9905 41.069 14.7806C41.0643 14.2553 41.0511 15.7627 41.029 15.2622C40.9936 14.461 40.8523 11.6871 40.7605 10.9608C40.4746 8.70069 40.4683 7.38207 38.032 5.14041C35.5957 2.89875 30.4868 1.85123 29.4884 1.60069C29.3776 1.57274 29.2679 1.5469 29.1598 1.52263C26.781 0.991491 25.1089 1.32853 25.1089 1.32853C25.1089 1.32853 25.1079 1.32748 25.1063 1.32642C25.1047 1.32537 25.1026 1.32326 25.1 1.32062C25.0989 1.31956 25.0979 1.31851 25.0963 1.31798C25.0942 1.31587 25.0915 1.31429 25.0889 1.31165C25.0863 1.30954 25.0836 1.30743 25.081 1.30532C25.0784 1.30321 25.0757 1.30163 25.0731 1.29952C25.0694 1.29688 25.0652 1.29372 25.0604 1.29055C25.0573 1.28845 25.0541 1.28633 25.0509 1.28422C25.0451 1.28053 25.0398 1.27631 25.033 1.27209C25.0309 1.27051 25.0282 1.26893 25.0261 1.26787C24.9892 1.24414 24.938 1.21407 24.869 1.17874C24.8674 1.17821 24.8663 1.17715 24.8647 1.17663C24.8479 1.16819 24.8299 1.15922 24.8115 1.15025C24.8083 1.14867 24.8057 1.14762 24.8025 1.14603C24.7835 1.13707 24.7635 1.12757 24.7424 1.11808C24.7397 1.1165 24.7366 1.11544 24.7334 1.11386C24.5905 1.04951 24.3969 0.974085 24.139 0.891803L24.1379 0.891276C24.0957 0.877562 24.0514 0.864376 24.0055 0.850134C24.0034 0.849607 24.0008 0.848552 23.9987 0.848025C23.9528 0.834311 23.9048 0.82007 23.8552 0.806356C23.8541 0.805829 23.8531 0.805829 23.852 0.805301C23.5482 0.7188 23.1748 0.627551 22.717 0.535247C22.708 0.533665 22.6996 0.531555 22.6906 0.529972C22.621 0.516259 22.5492 0.502018 22.4759 0.488304C22.4648 0.486194 22.4538 0.484084 22.4422 0.481975C22.3673 0.467734 22.2913 0.45402 22.2122 0.439779C22.2048 0.438196 22.1969 0.437141 22.1895 0.435559C21.8467 0.374902 21.4653 0.314246 21.0407 0.255171C21.0365 0.254644 21.0323 0.254116 21.0275 0.253062C20.499 0.179746 19.9057 0.109068 19.2363 0.0436639C14.1417 -0.455831 8.1277 3.46998 6.21728 4.68364C4.30685 5.8973 3.88701 7.25812 3.88701 7.25812C3.88701 7.25812 2.6475 7.50919 1.37371 9.29355C0.40742 10.6475 1.25134 22.1591 1.71497 27.6404L1.37424 41.6009C1.37424 41.6062 1.37529 41.6114 1.37529 41.6167L1.37424 41.6573C1.34417 42.8995 2.23029 44.341 3.34426 44.8922L11.5392 48.9578C12.6532 49.5089 14.5816 50 15.8242 50H26.6201C27.8628 50 29.7911 49.51 30.9051 48.9593L39.1001 44.8811C40.214 44.3299 41.1007 42.8552 41.0701 41.613L40.664 24.9403ZM37.6538 42.0656L29.4947 46.1259C28.7874 46.4756 27.3332 46.8353 26.6201 46.8353H15.8242C15.1117 46.8353 13.6575 46.4751 12.9423 46.1211L4.75044 42.0566C4.6977 42.0123 4.569 41.8071 4.53893 41.6848L5.05583 20.4465C5.11755 20.2534 5.17926 20.0593 5.2262 19.8536C5.78161 17.4437 6.05799 14.3845 6.05799 14.3845C6.05799 14.3845 8.15407 14.0886 11.5076 15.2611C14.8606 16.4336 17.6471 18.3288 17.6471 18.3288C17.6471 18.3288 16.7499 20.187 17.6471 20.8542C18.2052 21.2693 19.8888 21.3737 21.2005 21.7029C21.2232 21.7087 21.2454 21.7145 21.2681 21.7203C21.3055 21.7298 21.343 21.7398 21.3799 21.7503C21.4036 21.7572 21.4273 21.7635 21.4511 21.7704C21.4864 21.7804 21.5212 21.7909 21.556 21.8015C21.5787 21.8083 21.6014 21.8152 21.6236 21.8226C21.6626 21.8347 21.7006 21.8479 21.738 21.8606C21.7544 21.8664 21.7712 21.8716 21.7876 21.8774C21.8398 21.8959 21.891 21.9154 21.9406 21.9355C21.9548 21.9413 21.9685 21.9476 21.9822 21.9534C22.0181 21.9682 22.0534 21.9835 22.0877 21.9993C22.1051 22.0072 22.122 22.0156 22.1394 22.0241C22.1695 22.0388 22.199 22.0536 22.228 22.0689C22.2444 22.0773 22.2607 22.0863 22.2771 22.0953C22.3071 22.1122 22.3361 22.1296 22.3646 22.1475C22.3768 22.1549 22.3894 22.1623 22.4015 22.1702C22.4406 22.196 22.478 22.2224 22.5128 22.2498C22.5192 22.2546 22.5244 22.2604 22.5308 22.2651C22.5593 22.2883 22.5862 22.3115 22.6115 22.3358C22.622 22.3458 22.6315 22.3564 22.6415 22.3664C22.6616 22.387 22.6806 22.4075 22.698 22.4292C22.7075 22.4408 22.717 22.4518 22.7254 22.464C22.7423 22.4861 22.7581 22.5093 22.7723 22.5331C22.7792 22.5436 22.7861 22.5542 22.7924 22.5652C22.8119 22.5995 22.8293 22.6349 22.8435 22.6718C22.861 22.7166 22.872 22.762 22.8799 22.8079C22.8826 22.8226 22.8831 22.8379 22.8847 22.8527C22.8879 22.8843 22.89 22.916 22.8894 22.9482C22.8889 22.9656 22.8873 22.9835 22.8857 23.0014C22.8831 23.032 22.8789 23.0626 22.8731 23.0937C22.8694 23.1117 22.8662 23.1301 22.8615 23.1481C22.8536 23.1808 22.843 23.2135 22.8314 23.2467C22.8256 23.2631 22.8209 23.2789 22.8145 23.2952C22.7971 23.3395 22.7771 23.3844 22.7539 23.4292C22.7512 23.4339 22.7497 23.4387 22.747 23.4434C22.7212 23.493 22.6916 23.5431 22.6595 23.5932C22.6494 23.6085 22.6384 23.6244 22.6278 23.6397C22.6046 23.6745 22.5803 23.7093 22.5545 23.7441C22.5408 23.7625 22.5265 23.781 22.5123 23.7989C22.487 23.8316 22.4606 23.8643 22.4332 23.897C22.4179 23.9155 22.4026 23.9334 22.3862 23.9519C22.3562 23.9862 22.3251 24.0205 22.2934 24.0542C22.2786 24.07 22.2644 24.0853 22.2496 24.1012C22.2064 24.146 22.1621 24.1903 22.1162 24.2346C22.112 24.2388 22.1078 24.2436 22.103 24.2478C22.0513 24.2974 21.9975 24.347 21.9432 24.396C21.9311 24.4066 21.9189 24.4171 21.9068 24.4277C21.8641 24.4651 21.8214 24.5026 21.7776 24.5395C21.7612 24.5532 21.7443 24.5674 21.7275 24.5811C21.6863 24.6154 21.6452 24.6492 21.6035 24.6824C21.5872 24.6956 21.5708 24.7088 21.5539 24.722C21.5091 24.7573 21.4643 24.7921 21.4194 24.8264C21.4068 24.8359 21.3941 24.8459 21.3815 24.8554C21.2623 24.9456 21.1425 25.0326 21.0254 25.1144C20.373 25.5712 19.8002 25.8834 19.8002 25.8834C19.8002 25.8834 20.2706 25.8697 21.0254 25.7421H21.0265C21.2132 25.7104 21.4163 25.6719 21.6346 25.6244C21.642 25.6229 21.6494 25.6213 21.6568 25.6197C21.7185 25.606 21.7818 25.5923 21.8456 25.577C21.8641 25.5728 21.8831 25.568 21.9015 25.5638C21.9558 25.5511 22.0107 25.5379 22.0666 25.5237C22.0898 25.5179 22.1136 25.5121 22.1373 25.5058C22.1895 25.4926 22.2423 25.4789 22.2955 25.4646C22.3219 25.4578 22.3488 25.4504 22.3757 25.443C22.429 25.4288 22.4828 25.4135 22.5371 25.3982C22.5635 25.3908 22.5898 25.3834 22.6167 25.3755C22.6763 25.3581 22.7365 25.3401 22.7971 25.3217C22.8193 25.3148 22.8409 25.3085 22.8631 25.3016C22.9464 25.2758 23.0308 25.2489 23.1162 25.2204C23.1178 25.2199 23.1194 25.2194 23.1215 25.2188C23.2038 25.1914 23.2871 25.1629 23.371 25.1334C23.3995 25.1234 23.429 25.1123 23.4575 25.1023C23.515 25.0817 23.5725 25.0606 23.6305 25.039C23.6653 25.0258 23.7007 25.0126 23.7355 24.9989C23.7887 24.9783 23.8425 24.9577 23.8963 24.9361C23.9333 24.9214 23.9702 24.9066 24.0071 24.8913C24.0604 24.8697 24.1136 24.8475 24.1674 24.8248C24.2049 24.809 24.2423 24.7932 24.2798 24.7768C24.3346 24.7531 24.3895 24.7283 24.4449 24.7035C24.4813 24.6872 24.5177 24.6708 24.5546 24.6539C24.6142 24.6265 24.6743 24.598 24.7345 24.569C24.7666 24.5537 24.7983 24.539 24.8305 24.5231C24.9191 24.4799 25.0077 24.4356 25.0963 24.3897C25.1 24.3876 25.1037 24.386 25.1074 24.3844C25.7973 24.0273 26.0715 23.5321 26.0947 22.9904C26.1644 21.3642 23.9755 19.3167 23.9755 19.3167C23.9755 19.3167 25.4571 19.1532 27.1945 18.8114C27.3775 18.7755 27.5632 18.7375 27.7504 18.6974C28.7795 18.4775 29.8518 18.1969 30.7284 17.853C31.5254 17.5402 32.4194 17.1209 33.2712 16.6916C33.4416 16.6056 33.6109 16.5207 33.7765 16.4336C34.5213 16.0428 35.5282 14.9404 35.5282 14.9404C35.5282 14.9404 35.8705 15.066 35.8694 15.5829C35.8673 16.5523 36.8452 18.1953 37.0968 19.496C37.1469 19.756 37.206 20.0034 37.274 20.2307C37.3099 20.3499 37.3489 20.4623 37.3906 20.5694L37.9043 41.6452C37.8769 41.7686 37.7493 41.9822 37.6538 42.0656Z" fill="#C2A46D"/>
</svg>
