<svg width="30" height="26" viewBox="0 0 30 26" fill="none" xmlns="http://www.w3.org/2000/svg">
<path d="M29.5525 16.5036C29.3126 16.5036 29.1226 16.6919 29.1226 16.9334V21.0206C29.1226 23.0297 27.4919 24.6443 25.499 24.6443L4.48329 24.6427C2.47428 24.6427 0.859651 23.012 0.859651 21.019V16.9318C0.859651 16.6919 0.671307 16.502 0.429825 16.502C0.189968 16.502 0 16.6903 0 16.9318V21.019C0 23.4917 2.00901 25.5007 4.48164 25.5007H25.4813C27.9539 25.5007 29.9629 23.4917 29.9629 21.019V16.9318C29.9822 16.6919 29.7939 16.5036 29.5525 16.5036Z" fill="black"/>
<path d="M14.9916 0.5C14.7517 0.5 14.5617 0.688345 14.5617 0.929826V16.7266L10.1493 12.0389C9.97707 11.8667 9.71949 11.8506 9.54888 12.0212C9.37663 12.1758 9.36054 12.4511 9.53117 12.6217L14.6825 18.0998C14.7678 18.1851 14.8708 18.2366 14.9916 18.2366C15.1123 18.2366 15.2153 18.1851 15.3006 18.0998L20.452 12.6217C20.6065 12.4494 20.6065 12.1758 20.4343 12.0212C20.262 11.8667 19.9884 11.8667 19.8338 12.0389L15.4214 16.7266V0.929826C15.4214 0.706065 15.2314 0.5 14.9916 0.5Z" fill="black"/>
</svg>
