<svg width="23" height="24" viewBox="0 0 23 24" fill="none" xmlns="http://www.w3.org/2000/svg">
<path d="M19.6807 0.569926C18.9446 -0.18965 17.7436 -0.18965 17.0075 0.569926L6.89579 11.0041C6.35341 11.5638 5.95266 12.2696 5.75895 13.043L5.087 15.6815C4.89329 16.4273 5.10032 17.2006 5.62939 17.7341C6.03014 18.1476 6.54588 18.36 7.08826 18.36C7.26866 18.36 7.45027 18.3337 7.61733 18.2938L10.1743 17.6004C10.9237 17.4005 11.5944 16.987 12.1501 16.4273L22.2618 5.99312C22.9979 5.23355 22.9979 3.99424 22.2618 3.23467L19.6807 0.569926ZM11.7131 15.9751C11.2482 16.4548 10.6671 16.8008 10.0339 16.9745L7.47693 17.6679C6.98661 17.8016 6.46963 17.6541 6.10763 17.2819C5.72021 16.9071 5.59186 16.3749 5.72021 15.8676L6.39215 13.2291C6.56043 12.5757 6.89579 11.9761 7.3607 11.4963L15.4057 3.19473L19.7582 7.68598L11.7131 15.9751ZM21.8248 5.54091L20.2098 7.20621L15.8573 2.71497L17.4712 1.04966C17.7169 0.796049 18.0269 0.676106 18.3489 0.676106C18.6722 0.676106 18.9821 0.796039 19.2267 1.04966L21.8224 3.72816C22.3018 4.22164 22.3018 5.03367 21.8248 5.54091Z" fill="black"/>
<path d="M22.2246 11.6698C22.0442 11.6698 21.9014 11.816 21.9014 12.0034V20.6785C21.9014 21.9441 20.9074 22.971 19.6797 22.971H2.86691C1.64049 22.971 0.645288 21.9454 0.645288 20.6785V3.32825C0.645288 2.06272 1.63925 1.03577 2.86691 1.03577H11.2739C11.4543 1.03577 11.5972 0.889605 11.5972 0.702199C11.5972 0.516054 11.4543 0.369873 11.2739 0.369873H2.86691C1.27849 0.369873 0 1.70289 0 3.32822V20.6785C0 22.3038 1.29182 23.6369 2.86691 23.6369H19.681C21.2694 23.6369 22.5479 22.3038 22.5479 20.6785V12.0034C22.5479 11.8172 22.4062 11.6698 22.2246 11.6698Z" fill="black"/>
</svg>
