<svg width="60" height="70" viewBox="0 0 60 70" fill="none" xmlns="http://www.w3.org/2000/svg">
<path d="M54.2671 60H36.9357C36.5306 60 36.2028 59.6709 36.2028 59.2665V47.5354C36.2028 44.1161 33.4206 41.3328 30 41.3328C26.5794 41.3328 23.7966 44.1155 23.7966 47.5354V59.2665C23.7966 59.6715 23.4681 60 23.0637 60H5.73286C5.32784 60 5 59.6709 5 59.2665V29.7917C5 29.5672 5.10333 29.3542 5.28 29.2151L29.5465 10.1569C29.8125 9.9477 30.1869 9.9477 30.4529 10.1569L54.72 29.2151C54.8967 29.3548 55 29.5678 55 29.7917V59.2665C55 59.6715 54.6722 60 54.2671 60ZM37.6691 58.5324H53.533V30.1495L41.7665 20.908L30 11.6666L6.46699 30.1495V58.5331H22.3302V47.5354C22.3302 43.3061 25.7713 39.8658 30 39.8658C34.2287 39.8658 37.6691 43.3068 37.6691 47.5354V58.5324Z" fill="#C2A46D"/>
</svg>
