<svg width="38" height="50" viewBox="0 0 38 50" fill="none" xmlns="http://www.w3.org/2000/svg">
<path d="M18.9999 0C16.2094 0 13.9885 2.2779 13.9885 5.01139V6.32118C7.95204 8.42825 3.90876 14.0661 3.90876 20.5581V30.1822C3.90876 31.9476 3.39623 33.5991 2.48507 35.0797L1.34612 36.9021C0.434955 38.3257 0.378008 40.0342 1.17527 41.4579C1.97254 42.9385 3.45318 43.7927 5.10466 43.7927H12.2231C12.5078 47.2665 15.4122 50 18.9429 50C22.4737 50 25.378 47.2665 25.6627 43.7927H32.8951C34.5466 43.7927 36.0272 42.9385 36.8245 41.4579C37.6217 39.9772 37.5648 38.2688 36.6536 36.8451L35.5147 35.0797C34.5466 33.5991 34.034 31.8337 34.034 30.0683V20.5581C34.034 14.123 29.9908 8.42825 23.9543 6.32118V5.01139C24.0682 2.22096 21.7903 0 18.9999 0ZM18.9999 48.2916C16.3803 48.2916 14.2732 46.3554 13.9885 43.7927H24.0682C23.7265 46.3554 21.6195 48.2916 18.9999 48.2916ZM32.3826 20.5581V30.1253C32.3826 32.2323 33.009 34.2825 34.1479 36.1048L35.2869 37.8702C35.8564 38.7244 35.9133 39.8064 35.4008 40.7175C34.8883 41.6287 33.9771 42.1982 32.952 42.1982H5.10466C4.0796 42.1982 3.16844 41.6856 2.65591 40.7745C2.14338 39.8633 2.20033 38.8383 2.76981 37.9271L3.90876 36.1048C4.99076 34.3394 5.61719 32.3462 5.61719 30.2961V20.5581C5.61719 14.6355 9.43268 9.51025 15.0705 7.74487L15.6969 7.57403V5.01139C15.6969 3.18907 17.1776 1.70843 18.9999 1.70843C20.8222 1.70843 22.3028 3.18907 22.3028 5.01139V7.57403L22.9293 7.74487C28.624 9.51025 32.3826 14.6355 32.3826 20.5581Z" fill="black"/>
</svg>
