<svg width="30" height="18" viewBox="0 0 30 18" fill="none" xmlns="http://www.w3.org/2000/svg">
<path d="M13.2062 14.2268V15.3093C13.2062 16.7938 12 18 10.5154 18H2.69069C1.20615 18 -3.33786e-05 16.7938 -3.33786e-05 15.3093V2.69072C-3.33786e-05 1.20619 1.20615 0 2.69069 0H10.5058C11.9903 0 13.1965 1.20619 13.1965 2.69072V3.23678C13.1965 3.38079 13.0834 3.49485 12.9384 3.49485C12.7944 3.49485 12.6804 3.38177 12.6804 3.23678V2.69072C12.6804 1.48454 11.7013 0.515134 10.5048 0.515134H2.68005C1.47386 0.515134 0.504462 1.49419 0.504462 2.69072V15.2986C0.504462 16.5048 1.48351 17.4742 2.68005 17.4742H10.5058C11.712 17.4742 12.6814 16.4952 12.6814 15.2986V14.2162C12.6814 14.0722 12.7944 13.9581 12.9394 13.9581C13.0825 13.9591 13.2062 14.0828 13.2062 14.2268Z" fill="black"/>
<path d="M8.12432 5.15434C8.21711 5.05093 8.38239 5.04126 8.48482 5.13405L12.7113 8.80382C12.7731 8.85601 12.8041 8.92753 12.8041 9.00002C12.8041 9.0725 12.7731 9.14402 12.7113 9.19622L8.48482 12.866C8.4336 12.9075 8.37174 12.9278 8.31955 12.9278C8.24706 12.9278 8.17554 12.8969 8.12335 12.8351C8.03057 12.7316 8.0412 12.5673 8.14365 12.4746L11.8753 9.23778C11.8646 9.23778 11.855 9.25808 11.8337 9.25808H4.19454C4.05053 9.25808 3.93648 9.145 3.93648 9.00002C3.93648 8.85601 4.04956 8.74196 4.19454 8.74196H11.8357C11.856 8.74196 11.856 8.75259 11.8773 8.76225L8.14563 5.52547C8.04124 5.43268 8.03154 5.26838 8.12432 5.15434ZM12.0618 9.08218L12.1546 9.00002L12.0618 8.91787C12.0724 8.9488 12.0927 8.9691 12.0927 9.00002C12.0927 9.03095 12.0724 9.05125 12.0618 9.08218Z" fill="black"/>
</svg>
